<svg width="35" height="35" viewBox="0 0 35 35" fill="none" xmlns="http://www.w3.org/2000/svg">
<path d="M6.6985 0.257812C3.01485 0.257812 0 3.27259 0 6.95631V27.7429C0 31.4266 3.01478 34.4403 6.6985 34.4403H27.4851C31.1688 34.4403 34.1825 31.4266 34.1825 27.7429V6.95631C34.1825 3.27266 31.1688 0.257812 27.4851 0.257812H6.6985ZM8.38327 5.89862C10.1495 5.89862 11.2374 7.05812 11.271 8.58226C11.271 10.0728 10.1494 11.2649 8.34911 11.2649H8.31597C6.58336 11.2649 5.46349 10.0728 5.46349 8.58226C5.46349 7.05815 6.61728 5.89862 8.38327 5.89862ZM23.6039 13.0223C27.0007 13.0223 29.5471 15.2425 29.5471 20.0135V28.9202H24.3848V20.6106C24.3848 18.5225 23.6377 17.0979 21.7696 17.0979C20.3434 17.0979 19.4933 18.0581 19.1201 18.9857C18.9837 19.3176 18.9502 19.781 18.9502 20.2453V28.9202H13.788C13.788 28.9202 13.8558 14.8441 13.788 13.3866H18.9513V15.5863C19.6373 14.5279 20.8644 13.0223 23.6039 13.0223ZM5.76799 13.3877H10.9302V28.9203H5.76799V13.3877Z" fill="black"/>
</svg>
