<svg width="51" height="70" viewBox="0 0 51 70" fill="none" xmlns="http://www.w3.org/2000/svg">
<path d="M16.758 59.756C11.025 59.756 5.355 58.118 0.63 54.716L5.103 47.471C9.009 50.054 13.293 51.377 16.821 51.377C18.9 51.377 19.845 50.747 19.845 49.55V49.424C19.845 48.101 17.955 47.534 14.364 46.526C7.623 44.762 2.268 42.494 2.268 35.627V35.501C2.268 28.256 8.064 24.224 15.939 24.224C20.916 24.224 26.082 25.673 29.988 28.193L25.893 35.753C22.365 33.8 18.522 32.603 15.813 32.603C13.986 32.603 13.041 33.296 13.041 34.241V34.367C13.041 35.69 14.994 36.32 18.585 37.391C25.326 39.281 30.681 41.612 30.681 48.227V48.353C30.681 55.85 25.074 59.756 16.758 59.756ZM35.0703 59V46.715H47.5443V59H35.0703Z" fill="#0076CF"/>
</svg>
