<svg width="23" height="24" viewBox="0 0 23 24" fill="none" xmlns="http://www.w3.org/2000/svg">
<path d="M13.158 6.94312C15.7718 6.94312 16.8867 8.058 16.8867 10.6718H19.3725C19.3725 6.66347 17.1663 4.45734 13.158 4.45734V6.94312ZM17.4112 13.7082C17.1724 13.4911 16.8585 13.3753 16.536 13.3853C16.2134 13.3953 15.9073 13.5302 15.6823 13.7616L12.7081 16.8204C11.9922 16.6837 10.5529 16.235 9.0714 14.7572C7.58987 13.2744 7.14119 11.8314 7.0082 11.1205L10.0645 8.145C10.2962 7.9202 10.4313 7.61406 10.4413 7.29139C10.4512 6.96872 10.3353 6.65482 10.1179 6.41614L5.52543 1.36627C5.30798 1.12684 5.00575 0.9816 4.68294 0.96141C4.36013 0.94122 4.04216 1.04767 3.79657 1.25814L1.09949 3.57116C0.88461 3.78682 0.756354 4.07385 0.739053 4.3778C0.72041 4.68852 0.364943 12.0489 6.0723 17.7588C11.0513 22.7365 17.2882 23.1007 19.0058 23.1007C19.2569 23.1007 19.411 23.0933 19.452 23.0908C19.7559 23.0738 20.0428 22.9449 20.2574 22.7291L22.5692 20.0308C22.7798 19.7853 22.8865 19.4675 22.8665 19.1447C22.8466 18.8218 22.7016 18.5195 22.4623 18.3019L17.4112 13.7082V13.7082Z" fill="black"/>
</svg>
