<svg width="33" height="33" viewBox="0 0 33 33" fill="none" xmlns="http://www.w3.org/2000/svg">
<path d="M28.4553 0.686035H3.55691C1.59172 0.686035 0 2.27775 0 4.24295V29.1413C0 31.1065 1.59172 32.6982 3.55691 32.6982H28.4553C30.4205 32.6982 32.0122 31.1065 32.0122 29.1413V4.24295C32.0122 2.27775 30.4205 0.686035 28.4553 0.686035ZM24.9873 12.2709C24.9873 12.4238 24.9873 12.575 24.9873 12.8809C24.9873 18.6733 20.5661 25.3817 12.4865 25.3817C10.0483 25.3817 7.76118 24.6187 5.77998 23.4005C6.0841 23.4005 6.54294 23.4005 6.84706 23.4005C8.82826 23.4005 10.8112 22.6375 12.3354 21.5704C10.3542 21.5704 8.83003 20.1993 8.22002 18.5222C8.52414 18.5222 8.83003 18.6751 8.98298 18.6751C9.44004 18.6751 9.74594 18.6751 10.203 18.5222C8.2218 18.0651 6.69766 16.388 6.69766 14.2539C7.30768 14.558 7.91769 14.7109 8.67887 14.8639C7.45884 13.7968 6.69766 12.5768 6.69766 11.0527C6.69766 10.2897 6.85061 9.52852 7.30768 8.91851C9.44182 11.5097 12.643 13.3397 16.3013 13.4909C16.3013 13.1868 16.1484 12.8809 16.1484 12.4238C16.1484 9.98558 18.1296 8.0026 20.5696 8.0026C21.7896 8.0026 23.0079 8.45967 23.7708 9.37379C24.8379 9.22085 25.752 8.76378 26.515 8.30672C26.2109 9.37379 25.4479 10.1368 24.5338 10.745C25.4479 10.592 26.2109 10.4409 27.125 9.98202C26.5114 10.8997 25.7503 11.6609 24.9873 12.2709Z" fill="black"/>
</svg>
